<svg xmlns="http://www.w3.org/2000/svg" width="1200" height="800" viewBox="0 0 1200 800">
  <defs>
    <linearGradient id="bg" x1="0" y1="0" x2="1" y2="1">
      <stop offset="0%" stop-color="#f8fafc"/>
      <stop offset="100%" stop-color="#eef2f7"/>
    </linearGradient>
    <linearGradient id="accent" x1="0" y1="0" x2="1" y2="1">
      <stop offset="0%" stop-color="#ff8a00"/>
      <stop offset="100%" stop-color="#ffb347"/>
    </linearGradient>
  </defs>
  <rect width="1200" height="800" fill="url(#bg)"/>
  <rect x="90" y="90" width="1020" height="620" rx="48" fill="#ffffff" stroke="#e5e7eb" stroke-width="4"/>
  <circle cx="300" cy="300" r="110" fill="url(#accent)" opacity="0.2"/>
  <circle cx="920" cy="470" r="140" fill="url(#accent)" opacity="0.12"/>
  <rect x="220" y="240" width="280" height="200" rx="24" fill="#f3f4f6"/>
  <rect x="560" y="240" width="360" height="36" rx="18" fill="#e5e7eb"/>
  <rect x="560" y="300" width="300" height="28" rx="14" fill="#e5e7eb"/>
  <rect x="560" y="350" width="260" height="28" rx="14" fill="#e5e7eb"/>
  <rect x="560" y="420" width="200" height="28" rx="14" fill="#e5e7eb"/>
  <rect x="220" y="470" width="260" height="36" rx="18" fill="url(#accent)" opacity="0.18"/>
  <rect x="220" y="530" width="220" height="28" rx="14" fill="#e5e7eb"/>
  <text x="600" y="650" text-anchor="middle" font-family="Arial, sans-serif" font-size="28" fill="#9ca3af">تصویر آگهی</text>
</svg>
